<svg id="visual" viewBox="0 0 900 600" width="900" height="600" xmlns="http://www.w3.org/2000/svg" xmlns:xlink="http://www.w3.org/1999/xlink" version="1.1"><rect width="900" height="600" fill="#f3f4f6"></rect><g><g transform="translate(361 32)"><path d="M0 -100.4L86.9 -50.2L86.9 50.2L0 100.4L-86.9 50.2L-86.9 -50.2Z" fill="none" stroke="#d1d5db" stroke-width="2"></path></g><g transform="translate(118 248)"><path d="M0 -64L55.4 -32L55.4 32L0 64L-55.4 32L-55.4 -32Z" fill="none" stroke="#d1d5db" stroke-width="2"></path></g><g transform="translate(789 297)"><path d="M0 -38L32.9 -19L32.9 19L0 38L-32.9 19L-32.9 -19Z" fill="none" stroke="#d1d5db" stroke-width="2"></path></g><g transform="translate(613 566)"><path d="M0 -57L49.4 -28.5L49.4 28.5L0 57L-49.4 28.5L-49.4 -28.5Z" fill="none" stroke="#d1d5db" stroke-width="2"></path></g><g transform="translate(39 583)"><path d="M0 -98L84.9 -49L84.9 49L0 98L-84.9 49L-84.9 -49Z" fill="none" stroke="#d1d5db" stroke-width="2"></path></g><g transform="translate(343 384)"><path d="M0 -66L57.2 -33L57.2 33L0 66L-57.2 33L-57.2 -33Z" stroke="#d1d5db" fill="none" stroke-width="2"></path></g><g transform="translate(729 65)"><path d="M0 -75L65 -37.5L65 37.5L0 75L-65 37.5L-65 -37.5Z" stroke="#d1d5db" fill="none" stroke-width="2"></path></g><g transform="translate(831 524)"><path d="M0 -82L71 -41L71 41L0 82L-71 41L-71 -41Z" stroke="#d1d5db" fill="none" stroke-width="2"></path></g><g transform="translate(507 238)"><path d="M0 -49L42.4 -24.5L42.4 24.5L0 49L-42.4 24.5L-42.4 -24.5Z" stroke="#d1d5db" fill="none" stroke-width="2"></path></g><g transform="translate(139 10)"><path d="M0 -56L48.5 -28L48.5 28L0 56L-48.5 28L-48.5 -28Z" stroke="#d1d5db" fill="none" stroke-width="2"></path></g></g></svg>