<svg id="visual" viewBox="0 0 900 600" width="900" height="600" xmlns="http://www.w3.org/2000/svg" xmlns:xlink="http://www.w3.org/1999/xlink" version="1.1"><rect x="0" y="0" width="900" height="600" fill="#f9fafb"></rect><defs><linearGradient id="grad1_0" x1="33.3%" y1="0%" x2="100%" y2="100%"><stop offset="20%" stop-color="#d1d5db" stop-opacity="1"></stop><stop offset="80%" stop-color="#d1d5db" stop-opacity="1"></stop></linearGradient></defs><defs><linearGradient id="grad1_1" x1="33.3%" y1="0%" x2="100%" y2="100%"><stop offset="20%" stop-color="#d1d5db" stop-opacity="1"></stop><stop offset="80%" stop-color="#252525" stop-opacity="1"></stop></linearGradient></defs><defs><linearGradient id="grad1_2" x1="33.3%" y1="0%" x2="100%" y2="100%"><stop offset="20%" stop-color="#f9fafb" stop-opacity="1"></stop><stop offset="80%" stop-color="#252525" stop-opacity="1"></stop></linearGradient></defs><defs><linearGradient id="grad2_0" x1="0%" y1="0%" x2="66.7%" y2="100%"><stop offset="20%" stop-color="#d1d5db" stop-opacity="1"></stop><stop offset="80%" stop-color="#d1d5db" stop-opacity="1"></stop></linearGradient></defs><defs><linearGradient id="grad2_1" x1="0%" y1="0%" x2="66.7%" y2="100%"><stop offset="20%" stop-color="#252525" stop-opacity="1"></stop><stop offset="80%" stop-color="#d1d5db" stop-opacity="1"></stop></linearGradient></defs><defs><linearGradient id="grad2_2" x1="0%" y1="0%" x2="66.7%" y2="100%"><stop offset="20%" stop-color="#252525" stop-opacity="1"></stop><stop offset="80%" stop-color="#f9fafb" stop-opacity="1"></stop></linearGradient></defs><g transform="translate(900, 0)"><path d="M0 405.6C-43.1 399.5 -86.1 393.3 -122.1 375.7C-158 358.1 -186.9 329 -222.8 306.6C-258.7 284.2 -301.7 268.5 -328.2 238.4C-354.6 208.3 -364.6 163.9 -374.7 121.8C-384.9 79.6 -395.2 39.8 -405.6 0L0 0Z" fill="#f3f4f6"></path><path d="M0 270.4C-28.7 266.3 -57.4 262.2 -81.4 250.4C-105.3 238.7 -124.6 219.3 -148.5 204.4C-172.5 189.5 -201.1 179 -218.8 158.9C-236.4 138.9 -243 109.3 -249.8 81.2C-256.6 53.1 -263.5 26.5 -270.4 0L0 0Z" fill="#e5e7eb"></path><path d="M0 135.2C-14.4 133.2 -28.7 131.1 -40.7 125.2C-52.7 119.4 -62.3 109.7 -74.3 102.2C-86.2 94.7 -100.6 89.5 -109.4 79.5C-118.2 69.4 -121.5 54.6 -124.9 40.6C-128.3 26.5 -131.7 13.3 -135.2 0L0 0Z" fill="#d1d5db"></path></g><g transform="translate(0, 600)"><path d="M0 -405.6C38.9 -378 77.9 -350.4 105.4 -324.3C132.9 -298.2 148.9 -273.6 192.8 -265.4C236.7 -257.1 308.5 -265.4 328.2 -238.4C347.8 -211.5 315.3 -149.4 319.6 -103.8C323.8 -58.2 364.7 -29.1 405.6 0L0 0Z" fill="#f3f4f6"></path><path d="M0 -270.4C26 -252 51.9 -233.6 70.2 -216.2C88.6 -198.8 99.3 -182.4 128.5 -176.9C157.8 -171.4 205.7 -176.9 218.8 -158.9C231.9 -141 210.2 -99.6 213 -69.2C215.9 -38.8 243.1 -19.4 270.4 0L0 0Z" fill="#e5e7eb"></path><path d="M0 -135.2C13 -126 26 -116.8 35.1 -108.1C44.3 -99.4 49.6 -91.2 64.3 -88.5C78.9 -85.7 102.8 -88.5 109.4 -79.5C115.9 -70.5 105.1 -49.8 106.5 -34.6C107.9 -19.4 121.6 -9.7 135.2 0L0 0Z" fill="#d1d5db"></path></g></svg>