<svg id="visual" viewBox="0 0 900 600" width="900" height="600" xmlns="http://www.w3.org/2000/svg" xmlns:xlink="http://www.w3.org/1999/xlink" version="1.1"><rect x="0" y="0" width="900" height="600" fill="#f9fafb"></rect><path d="M0 286L21.5 302.5C43 319 86 352 128.8 369.7C171.7 387.3 214.3 389.7 257.2 380.8C300 372 343 352 385.8 341C428.7 330 471.3 328 514.2 338.3C557 348.7 600 371.3 642.8 370.3C685.7 369.3 728.3 344.7 771.2 343.8C814 343 857 366 878.5 377.5L900 389L900 601L878.5 601C857 601 814 601 771.2 601C728.3 601 685.7 601 642.8 601C600 601 557 601 514.2 601C471.3 601 428.7 601 385.8 601C343 601 300 601 257.2 601C214.3 601 171.7 601 128.8 601C86 601 43 601 21.5 601L0 601Z" fill="#f3f4f6"></path><path d="M0 456L21.5 450C43 444 86 432 128.8 425.3C171.7 418.7 214.3 417.3 257.2 418.2C300 419 343 422 385.8 429.5C428.7 437 471.3 449 514.2 451.3C557 453.7 600 446.3 642.8 447.2C685.7 448 728.3 457 771.2 461.8C814 466.7 857 467.3 878.5 467.7L900 468L900 601L878.5 601C857 601 814 601 771.2 601C728.3 601 685.7 601 642.8 601C600 601 557 601 514.2 601C471.3 601 428.7 601 385.8 601C343 601 300 601 257.2 601C214.3 601 171.7 601 128.8 601C86 601 43 601 21.5 601L0 601Z" fill="#e5e7eb"></path><path d="M0 498L21.5 500.2C43 502.3 86 506.7 128.8 500.3C171.7 494 214.3 477 257.2 471.3C300 465.7 343 471.3 385.8 479.2C428.7 487 471.3 497 514.2 499.2C557 501.3 600 495.7 642.8 493C685.7 490.3 728.3 490.7 771.2 492.7C814 494.7 857 498.3 878.5 500.2L900 502L900 601L878.5 601C857 601 814 601 771.2 601C728.3 601 685.7 601 642.8 601C600 601 557 601 514.2 601C471.3 601 428.7 601 385.8 601C343 601 300 601 257.2 601C214.3 601 171.7 601 128.8 601C86 601 43 601 21.5 601L0 601Z" fill="#d1d5db"></path></svg>