<?xml version="1.0" encoding="UTF-8"?><svg id="a" xmlns="http://www.w3.org/2000/svg" viewBox="0 0 267.91 269.06"><g id="b"><path id="c" d="M189.6,105.88c-3.49,0-6.8,.03-9.43,.06-10.54,.15-20.88-.03-31.32,0-.35,0-.71,0-1.06,0-10.44,.03-20.78,.15-31.32,0-10.54-.15-31.92,0-31.92,0,0,0,.67,6.42,.9,9.64,.41,5.51,.57,11.04,.9,16.56,.45,7.43,1.05,14.86,1.51,22.29,.34,5.52,.52,11.05,.9,16.56,.58,8.34,.67,16.76,2.1,24.99,.8,4.61,1.92,9.19,3.62,13.55,2.05,5.26,4.46,10.49,7.84,15.01,2.44,3.26,5.55,6,8.78,8.48,3.7,2.83,7.72,5.31,11.98,7.19,4.51,1.99,9.32,3.34,14.16,4.28,3.64,.7,7.38,.97,11.09,.98,3.69,.01,7.4-.2,11.02-.9,4.86-.93,9.67-2.35,14.19-4.36,4.26-1.9,8.29-4.36,11.99-7.19,3.23-2.48,6.34-5.22,8.78-8.48,3.38-4.52,5.79-9.75,7.84-15.01,1.69-4.36,2.81-8.95,3.62-13.56,1.43-8.24,1.52-16.65,2.1-24.99,.38-5.52,.57-11.04,.9-16.56,.45-7.43,1.05-14.85,1.51-22.28,.34-5.52,.5-11.05,.9-16.56,.24-3.22,.9-9.64,.9-9.64,0,0-12.03-.08-22.48-.06" style="fill:#fcdd09; stroke:#000; stroke-width:2px;"/><path id="d" d="M193.57,105.87c-1.33,0-2.66,0-3.97,0-3.49,0-6.8,.03-9.43,.06-10.54,.15-20.88-.03-31.32,0-.35,0-.71,0-1.06,0V245.46c.18,0,.36,0,.55,0,3.69,.01,7.4-.2,11.02-.9,4.86-.93,9.67-2.35,14.19-4.36,4.26-1.9,8.29-4.36,11.99-7.19,3.23-2.48,6.34-5.22,8.78-8.48,3.38-4.52,5.8-9.75,7.84-15.01,1.69-4.36,2.81-8.95,3.61-13.56,1.43-8.24,1.53-16.65,2.11-24.99,.38-5.52,.57-11.04,.9-16.56,.45-7.43,1.05-14.85,1.5-22.28,.34-5.52,.5-11.05,.91-16.56,.24-3.22,.9-9.64,.9-9.64,0,0-9.21-.06-18.52-.07h0Z" style="fill:#0f47af; stroke:#000; stroke-linecap:round; stroke-linejoin:round; stroke-width:2px;"/><path id="e" d="M148.32,105.85V246.47" style="fill:none; stroke:#000; stroke-width:2px;"/><path id="f" d="M110.32,122.62l-18.85,5.59-2.57,2.44,3.48,.64-2.57,2.44,3.49,.64-2.57,2.43,3.49,.64-2.57,2.44,3.48,.64-2.57,2.44,3.48,.64,7.26-2.16,21.55,78.16c1,2.1,3.01,3.3,4.83,2.76,1.82-.54,2.84-2.64,2.53-4.95l-24.57-77.26,7.26-2.15,2.57-2.44-3.49-.64,2.57-2.44-3.48-.63,2.57-2.44-3.48-.64,2.57-2.44-3.48-.64,2.57-2.44-3.48-.64h0Z"/><path id="g" d="M125.09,122.62l18.85,5.59,2.57,2.44-3.48,.64,2.57,2.44-3.49,.64,2.57,2.43-3.49,.64,2.57,2.44-3.48,.64,2.57,2.44-3.48,.64-7.26-2.16-21.55,78.16c-1,2.1-3.01,3.3-4.83,2.76-1.82-.54-2.84-2.64-2.53-4.95l24.57-77.26-7.26-2.15-2.57-2.44,3.49-.64-2.57-2.44,3.48-.63-2.57-2.44,3.48-.64-2.57-2.44,3.48-.64-2.57-2.44,3.48-.64h0Z"/><path id="h" d="M179.6,119.76c-.48,.24-.91,.58-1.27,.99-.93,1.06-1.27,2.51-1.9,3.77-.54,1.08-1.29,2.03-1.98,3.02s-1.33,2.04-1.61,3.21c-.22,.92-.2,1.9,0,2.83s.55,1.82,.99,2.66c.97,1.84,2.38,3.49,2.96,5.49,.37,1.28,.37,2.66,0,3.94-2.03-3.06-5.49-5.14-9.15-5.49-3.86-.37-7.85,1.18-10.48,4.03s-3.87,6.92-3.32,10.76c.61,4.22,3.37,8.07,7.18,10-1.2-2.01-1.41-4.58-.56-6.76,.51-1.31,1.39-2.47,2.53-3.29s2.55-1.26,3.95-1.22c1.02,.03,2.02,.32,2.93,.79,.9,.47,1.71,1.12,2.41,1.86,1.39,1.49,2.33,3.34,3.11,5.23,1.64,3.95,1.9,8.17,2.05,12.44s.19,8.6-1.63,12.48c-.78,1.68-1.78,3.29-3.15,4.53-1.37,1.24-3.16,2.09-5.01,2.09-1.45,0-2.89-.54-3.99-1.48s-1.84-2.29-2.06-3.72c-1.81,1.98-2.61,4.83-2.11,7.46,.42,2.19,1.71,4.2,3.52,5.51,1.81,1.31,4.11,1.9,6.33,1.67,1.94-.2,3.81-1.03,5.27-2.34s2.48-3.07,2.9-4.98c.71,2.04,.66,4.33-.14,6.33-.54,1.35-1.4,2.54-2.13,3.8s-1.37,2.63-1.38,4.08c-.02,1.42,.56,2.79,1.27,4.03s1.54,2.41,2.11,3.71c.53,1.2,.83,2.49,1.41,3.66,.27,.55,.6,1.07,.99,1.55,.38-.48,.71-1,.99-1.55,.58-1.17,.88-2.46,1.41-3.66,.58-1.3,1.41-2.47,2.11-3.71s1.28-2.61,1.27-4.03c-.02-1.45-.65-2.83-1.38-4.08-.74-1.25-1.59-2.45-2.13-3.8-.8-2-.85-4.3-.14-6.33,.41,1.91,1.44,3.68,2.9,4.98s3.33,2.13,5.27,2.34c2.22,.23,4.52-.36,6.33-1.67s3.11-3.32,3.52-5.51c.5-2.63-.31-5.48-2.11-7.46-.22,1.43-.96,2.78-2.06,3.72s-2.54,1.48-3.99,1.48c-1.85,0-3.64-.85-5.01-2.09s-2.37-2.85-3.15-4.53c-1.81-3.87-1.78-8.2-1.63-12.48s.41-8.49,2.05-12.44c.78-1.88,1.72-3.74,3.11-5.23,.7-.74,1.5-1.39,2.41-1.86,.9-.47,1.91-.76,2.93-.79,1.4-.05,2.81,.4,3.95,1.22s2.02,1.98,2.53,3.29c.85,2.18,.64,4.75-.56,6.76,3.81-1.92,6.57-5.77,7.18-10,.55-3.84-.68-7.91-3.32-10.76-2.63-2.85-6.62-4.4-10.48-4.03-3.66,.35-7.12,2.43-9.15,5.49-.37-1.28-.37-2.66,0-3.94,.57-2,1.98-3.65,2.96-5.49,.44-.84,.8-1.73,.99-2.66s.21-1.9,0-2.83c-.28-1.17-.92-2.22-1.61-3.21s-1.44-1.94-1.98-3.02c-.63-1.27-.97-2.71-1.9-3.77-.35-.4-.79-.74-1.27-.99Z" style="fill:#fff; stroke:#000; stroke-linecap:round; stroke-linejoin:round; stroke-width:2px;"/><path id="i" d="M173.33,167.19h12.55c2.46,0,4.45,1.99,4.45,4.45h0c0,2.46-1.99,4.45-4.45,4.45h-12.55c-2.46,0-4.45-1.99-4.45-4.45h0c0-2.46,1.99-4.45,4.45-4.45Z" style="fill:#fff; fill-rule:evenodd; stroke:#000; stroke-linecap:round; stroke-linejoin:round; stroke-width:2px;"/><path id="j" d="M166.73,171.64h25.76" style="fill:#fff; stroke:#000; stroke-linecap:round; stroke-width:2px;"/></g><g id="k"><path d="M63.49,88.86c-1.06,.49-1.57,.89-3.25,1.56-2.61,1.05-3.74,1.21-6.06,2.04-1.27,.39-2.5,.82-3.38,1.84-.51,.68-4.15,4.77-5.3,6.41-1.15,1.64-6.45,8.18-7.98,9.75-1.53,1.57-2.49,2.86-3.96,5.11-1.47,2.25-4.21,7.29-5.94,10.5-1.72,3.2-3.28,7.57-4.74,9.06-1.47,1.5-4.28,5.79-5.11,8.31s-1.34,6.41-1.53,8.79c-.19,2.39,.77,3.2,.77,4.09s-.09,2.12,.64,3.07c.9,1.17,.38,1.02,.83,1.5,.45,.48,1.53,.95,1.98,1.09,.45,.14,1.15-.61,1.15-.61,0,0,1.47-.2,1.47-1.16,0,0-.45-5.68-.26-6.02,0,0,.83-3.73,1.21-4.48s.77-2.79,.89-3c.13-.2,.7-.07,.83,.41,.08,.3,.4,1.84-.52,4.64-.36,1.08-.11,2.33-.06,2.45,.13,.34,.26,1.05,1.27,1.15,.68,.07,1.77-.5,1.79-1.77,0,0-.21-1.18,.06-2.18,.43-1.55,.51-4.09,.51-6.54,0,0-1.15-6-.45-6.68s6.49-6.08,7.96-7.68c1.47-1.59,7.16-9.5,7.72-10.13s2.6-2.75,3.49-3.36c.89-.61,3.34-2.41,4.36-3.23,1.02-.82,1.98-2.11,1.98-2.11,0,0,.4,13.7,.15,16.83-.26,3.14-.06,5.59-.45,7.43s-3.55,12.34-4.45,16.29c-.89,3.95-5.6,23.99-6.11,27.26s-3.89,24.47-4.28,26.04c-.38,1.57-.89,2.79-.89,2.79,0,0-1.48,2.81-2.49,3.2s-1.34,.41-3.19,1.29c-1.85,.89-2.68,2.04-3.19,3.41-.51,1.36-.7,3.2-.7,4.23s-.06,2.32,.32,2.79c.38,.48,2.49,1.43,4.28,1.64,1.79,.2,6.15,.89,9.57,.27,1.66-.27,6.77-3,8.11-3.75,1.34-.75,1.17-1.29,1.49-2.45,.32-1.16,.13-5.38,.13-6.34s-.51-2.79-1.28-3.54c-.77-.75-.4-1.29-.21-2.11s7.79-23.24,8.43-25.22c.64-1.98,7.66-21.33,8.23-22.15,.57-.82,.83-1.09,2.3-.95,1.47,.14,1.98,1.29,2.43,3,.45,1.7,3.96,12.75,4.79,15.54,.83,2.79,2.68,7.43,2.74,9.41,.06,1.98,1.94,19.36,1.53,21.2-.26,1.16-1.88,5.22-2.11,6.79-.29,1.98,.03,4.98,.45,6.03,.32,.82,2.49,3.27,4.02,4.16,1.53,.89,2.87,1.02,4.6,1.02s9.32-.55,10.79-1.02,1.91-1.5,1.91-2.73-.07-3.34-1.34-5.69c-.77-1.43-4.02-3.72-4.24-4.06-.54-.82-2.23-1.74-1.95-4.78,.06-.63,1.91-19.08,1.98-21.54,.06-2.45,.19-6-.96-13.84-1.15-7.84-5.45-20.81-6.28-25.65-.83-4.84-.98-8.99-1.17-12.31-.03-3.2-.57-7.02,.38-10.9s3.14-9.7,4.89-11.59c.96-1.03,2.04-2.9,4.21-3.1,3.26-.31,5.59-.4,8.33-.85,2.88-.47,6.29-1.45,7.69-2.34,1.4-.89,3.26-3.16,3.96-3.84s6-6.36,7.21-7.93,2.68-3,3.26-3.41c.57-.41,2.67-2.37,4.02-2.31,1.23,.05,6.3-.51,7.71-1.91,2.82-2.59,6.83-2.12,7.72-2.74,1.56-1.09,.92-2.58,.92-2.58,0,0,2.46-.54,2.91-1.34,.85-1.47-.2-2.3-.2-2.3,0,0,.95-.53,1.31-1.01,.3-.4,.77-2.13-.61-2.44-.56-.14-.86,0-.86,0,0,0,.55-1.73-.57-2.19-.96-.39-3.3-.11-4.66,.11-1.36,.23-6.17,1.57-7.13,2.07-.96,.5-3.81,2.23-4.32,2.16-.51-.07-1.09-.11-1.02-1.34s-.06-1.48,.09-2.43,.53-2.84-.04-3.82c-.57-.98-1.66-1.66-2.74-1.41-1.09,.25-1.36,1.16-1.15,1.61,.21,.45,.36,1.82,.26,2.2-.11,.39-.24,2.45-.4,3.73-.47,3.75-2.75,5.93-3.26,6.38-.51,.45-6.77,4.83-11.04,7.36-3.68,2.18-5.55,4.03-7.23,6-.18,.21-9.4-.77-11.47-1-2.06-.23-8.72-1.54-11.23-1.86-3.42-.43-2.59-1.42-5.47-2.32-2-.62-8.78-2.74-14.77,0Z" style="stroke:#000; stroke-miterlimit:10; stroke-width:2px;"/><circle cx="73.93" cy="71.48" r="17.86" style="stroke:#000; stroke-miterlimit:10; stroke-width:2px;"/></g><g id="l"><g id="m"><path d="M200.02,61.46s-5.05-9.02-5.35-14.39c-.3-5.37-.06-14.82,3.8-20.29,3.86-5.47,8.69-9.45,10.66-12.17,1.97-2.72,3.3-5.71,3.3-5.71,0,0,.7,4.88,2.07,11.08,1.93,9.5-5.68,17.72-9.87,25.89-4.19,8.17-4.62,15.59-4.62,15.59Z" style="fill:#fcdd05; stroke:#000; stroke-miterlimit:10;"/><path d="M202.3,73.12s5.04,9.03,5.33,14.4c.29,5.37,.04,14.82-3.83,20.29s-8.7,9.44-10.68,12.15c-1.98,2.71-3.31,5.71-3.31,5.71,0,0-.69-4.88-2.06-11.09-1.92-9.5,5.71-17.71,9.91-25.87,4.2-8.16,4.64-15.58,4.64-15.58Z" style="fill:#fcdd05; stroke:#000; stroke-miterlimit:10;"/><path d="M196.06,69.95s-6.83,7.75-11.8,9.81c-4.97,2.06-13.97,4.97-20.4,3.14-6.44-1.83-11.8-5.06-15.01-6.02-3.22-.96-6.49-1.22-6.49-1.22,0,0,4.37-2.28,9.77-5.63,8.32-4.97,18.6-.51,27.7,.73,9.09,1.24,16.24-.81,16.24-.81Z" style="fill:#fcdd05; stroke:#000; stroke-miterlimit:10;"/><path d="M205.92,64.57s6.85-7.74,11.82-9.8c4.97-2.05,13.97-4.95,20.41-3.11,6.44,1.84,11.79,5.08,15,6.05,3.21,.97,6.48,1.23,6.48,1.23,0,0-4.37,2.27-9.78,5.61-8.33,4.96-18.6,.48-27.69-.78-9.09-1.26-16.24,.78-16.24,.78Z" style="fill:#fcdd05; stroke:#000; stroke-miterlimit:10;"/><path d="M198.68,72.55s-1.18,10.27-4.08,14.8c-2.9,4.53-8.62,12.06-14.95,14.23-6.33,2.18-12.58,2.58-15.76,3.63-3.19,1.05-6.02,2.7-6.02,2.7,0,0,2.29-4.37,4.8-10.2,3.99-8.83,14.98-11.05,23.15-15.22,8.17-4.17,12.86-9.94,12.86-9.94Z" style="fill:#fcdd05; stroke:#000; stroke-miterlimit:10;"/><path d="M203.65,61.77s1.2-10.27,4.11-14.79c2.91-4.52,8.64-12.04,14.98-14.21,6.33-2.17,12.58-2.56,15.77-3.6,3.19-1.04,6.03-2.69,6.03-2.69,0,0-2.29,4.36-4.82,10.19-4.01,8.83-14.99,11.02-23.18,15.18-8.18,4.16-12.88,9.92-12.88,9.92Z" style="fill:#fcdd05; stroke:#000; stroke-miterlimit:10;"/><path d="M205.38,71.49s9.27,4.57,12.55,8.83c3.28,4.26,8.44,12.18,8.36,18.88s-1.81,12.71-1.9,16.06c-.09,3.35,.51,6.58,.51,6.58,0,0-3.34-3.62-7.98-7.96-6.97-6.74-5.35-17.82-6.52-26.93-1.17-9.1-5.02-15.46-5.02-15.46Z" style="fill:#fcdd05; stroke:#000; stroke-miterlimit:10;"/><path d="M196.65,63.47s-9.26-4.59-12.54-8.85c-3.28-4.26-8.42-12.2-8.33-18.89,.1-6.69,1.83-12.71,1.93-16.06,.09-3.35-.5-6.58-.5-6.58,0,0,3.33,3.63,7.97,7.98,6.96,6.75,5.32,17.83,6.48,26.94,1.16,9.1,4.99,15.47,4.99,15.47Z" style="fill:#fcdd05; stroke:#000; stroke-miterlimit:10;"/><path d="M206.54,68.13s10.11-2.16,15.33-.85c5.22,1.3,14.18,4.33,18.26,9.64,4.08,5.31,6.46,11.1,8.47,13.78,2.01,2.69,4.48,4.85,4.48,4.85,0,0-4.87-.78-11.2-1.3-9.65-.97-15.25-10.67-21.81-17.09-6.56-6.42-13.52-9.02-13.52-9.02Z" style="fill:#fcdd05; stroke:#000; stroke-miterlimit:10;"/><path d="M194.02,66.74s-10.11,2.14-15.33,.83c-5.21-1.31-14.17-4.35-18.24-9.67-4.07-5.31-6.44-11.11-8.44-13.8-2.01-2.69-4.47-4.85-4.47-4.85,0,0,4.87,.78,11.2,1.32,9.64,.98,15.23,10.7,21.78,17.13s13.51,9.05,13.51,9.05Z" style="fill:#fcdd05; stroke:#000; stroke-miterlimit:10;"/></g></g><g id="n"><path d="M18.74,201.66c-.03,.35-.35,.77-.77,.93s-.54,.32-.54,.32l-6.77-.61-3.48,31.53s1.44,.99,3.54,2.07,6.48,1.88,9.89,2.07,7.66-.64,7.66-.64l3.29-32.68s-5.14-.62-5.59-.68-.91-.09-1.17-.26-.98-.85-1-.94,.19-5.45,.19-5.45c0,0,1.62-30.6,1.96-36.91s3.47-59.62,3.47-59.62c0,0,.23-.17,.32-.26s.36-.45,.98-.47,4.15,.4,4.6,.47,.6-.45,.72-1.32,.02-1.81-.21-2.06-3.53-1.21-8.28-1.38-7.04,.36-7.49,.47-.57,1.21-.57,1.81,.23,1.77,.4,1.9,.68,.08,2.43,.02,2.13,.04,2.6,.36,.51,.47,.51,.6-2.3,31.87-2.72,38-2.88,43.83-2.88,43.83l-.48,7.72-.61,11.17Z" style="stroke:#000; stroke-miterlimit:10; stroke-width:2px;"/></g><g id="o"><g id="p"><text transform="translate(88.44 236.07) rotate(46.82) scale(.85 1)" style="font-family:LucidaHandwriting-Italic, Lucida Handwriting; font-size:17px;"><tspan x="0" y="0">G</tspan></text><text transform="translate(96.38 244.42) rotate(37.8) scale(.85 1)" style="font-family:LucidaHandwriting-Italic, Lucida Handwriting; font-size:17px;"><tspan x="0" y="0">a</tspan></text><text transform="translate(106.28 251.86) rotate(30.45) scale(.85 1)" style="font-family:LucidaHandwriting-Italic, Lucida Handwriting; font-size:17px;"><tspan x="0" y="0">r</tspan></text><text transform="translate(113.76 256.12) rotate(24.32) scale(.85 1)" style="font-family:LucidaHandwriting-Italic, Lucida Handwriting; font-size:17px;"><tspan x="0" y="0">t</tspan></text><text transform="translate(120.28 259.07) rotate(17.86) scale(.85 1)" style="font-family:LucidaHandwriting-Italic, Lucida Handwriting; font-size:17px;"><tspan x="0" y="0">e</tspan></text><text transform="translate(129.38 261.58) rotate(9.45) scale(.85 1)" style="font-family:LucidaHandwriting-Italic, Lucida Handwriting; font-size:17px;"><tspan x="0" y="0">n</tspan></text><text transform="translate(141.95 263.47) rotate(1.07) scale(.85 1)" style="font-family:LucidaHandwriting-Italic, Lucida Handwriting; font-size:17px;"><tspan x="0" y="0">b</tspan></text><text transform="translate(152.38 263.64) rotate(-6.24) scale(.85 1)" style="font-family:LucidaHandwriting-Italic, Lucida Handwriting; font-size:17px;"><tspan x="0" y="0">a</tspan></text><text transform="translate(164.86 262.2) rotate(-15.19) scale(.85 1)" style="font-family:LucidaHandwriting-Italic, Lucida Handwriting; font-size:17px;"><tspan x="0" y="0">u</tspan></text><text transform="translate(176.5 258.5) rotate(-23.1) scale(.85 1)" style="font-family:LucidaHandwriting-Italic, Lucida Handwriting; font-size:17px;"><tspan x="0" y="0">v</tspan></text><text transform="translate(184.7 254.96) rotate(-30) scale(.85 1)" style="font-family:LucidaHandwriting-Italic, Lucida Handwriting; font-size:17px;"><tspan x="0" y="0">e</tspan></text><text transform="translate(192.7 250.26) rotate(-37.1) scale(.85 1)" style="font-family:LucidaHandwriting-Italic, Lucida Handwriting; font-size:17px;"><tspan x="0" y="0">r</tspan></text><text transform="translate(199.63 245.03) rotate(-44.41) scale(.85 1)" style="font-family:LucidaHandwriting-Italic, Lucida Handwriting; font-size:17px;"><tspan x="0" y="0">e</tspan></text><text transform="translate(206.34 238.74) rotate(-50.63) scale(.85 1)" style="font-family:LucidaHandwriting-Italic, Lucida Handwriting; font-size:17px;"><tspan x="0" y="0">i</tspan></text><text transform="translate(211.1 233.09) rotate(-58.6) scale(.85 1)" style="font-family:LucidaHandwriting-Italic, Lucida Handwriting; font-size:17px;"><tspan x="0" y="0">n</tspan></text><text transform="translate(217.69 222.37) rotate(-66.02) scale(.85 1)" style="font-family:LucidaHandwriting-Italic, Lucida Handwriting; font-size:17px;"><tspan x="0" y="0"> </tspan></text><text transform="translate(219.87 217.13) rotate(-72.54) scale(.85 1)" style="font-family:LucidaHandwriting-Italic, Lucida Handwriting; font-size:17px;"><tspan x="0" y="0">M</tspan></text><text transform="translate(224.12 203.33) rotate(-79.37) scale(.85 1)" style="font-family:LucidaHandwriting-Italic, Lucida Handwriting; font-size:17px;"><tspan x="0" y="0">e</tspan></text><text transform="translate(225.62 194.62) rotate(-82.34) scale(.85 1)" style="font-family:LucidaHandwriting-Italic, Lucida Handwriting; font-size:17px;"><tspan x="0" y="0">t</tspan></text><text transform="translate(226.41 188.08) rotate(-84.16) scale(.85 1)" style="font-family:LucidaHandwriting-Italic, Lucida Handwriting; font-size:17px;"><tspan x="0" y="0">t</tspan></text><text transform="translate(226.94 181.56) rotate(-85.46) scale(.85 1)" style="font-family:LucidaHandwriting-Italic, Lucida Handwriting; font-size:17px;"><tspan x="0" y="0">e</tspan></text><text transform="translate(227.56 173.05) rotate(-86.18) scale(.85 1)" style="font-family:LucidaHandwriting-Italic, Lucida Handwriting; font-size:17px;"><tspan x="0" y="0">n</tspan></text><text transform="translate(228.33 161.41) rotate(-86.2) scale(.85 1)" style="font-family:LucidaHandwriting-Italic, Lucida Handwriting; font-size:17px;"><tspan x="0" y="0"> </tspan></text><text transform="translate(228.66 156.55) rotate(-86.2) scale(.85 1)" style="font-family:LucidaHandwriting-Italic, Lucida Handwriting; font-size:17px;"><tspan x="0" y="0"> </tspan></text><text transform="translate(228.98 151.69) rotate(-86.2) scale(.85 1)" style="font-family:LucidaHandwriting-Italic, Lucida Handwriting; font-size:17px;"><tspan x="0" y="0">e</tspan></text><text transform="translate(229.54 143.26) rotate(-86.2) scale(.85 1)" style="font-family:LucidaHandwriting-Italic, Lucida Handwriting; font-size:17px;"><tspan x="0" y="0">.</tspan></text><text transform="translate(229.85 138.51) rotate(-86.2) scale(.85 1)" style="font-family:LucidaHandwriting-Italic, Lucida Handwriting; font-size:17px;"><tspan x="0" y="0">V</tspan></text><text transform="translate(230.49 128.84) rotate(-86.2) scale(.85 1)" style="font-family:LucidaHandwriting-Italic, Lucida Handwriting; font-size:17px;"><tspan x="0" y="0">.</tspan></text></g></g></svg>