<svg id="visual" viewBox="0 0 900 600" width="900" height="600" xmlns="http://www.w3.org/2000/svg" xmlns:xlink="http://www.w3.org/1999/xlink" version="1.1"><rect width="900" height="600" fill="#ffffff"></rect><g><g transform="translate(890 265)"><path d="M0 -100.4L86.9 -50.2L86.9 50.2L0 100.4L-86.9 50.2L-86.9 -50.2Z" fill="none" stroke="#dbeafe" stroke-width="2"></path></g><g transform="translate(509 558)"><path d="M0 -70L60.6 -35L60.6 35L0 70L-60.6 35L-60.6 -35Z" fill="none" stroke="#dbeafe" stroke-width="2"></path></g><g transform="translate(15 435)"><path d="M0 -33L28.6 -16.5L28.6 16.5L0 33L-28.6 16.5L-28.6 -16.5Z" fill="none" stroke="#dbeafe" stroke-width="2"></path></g><g transform="translate(515 95)"><path d="M0 -57L49.4 -28.5L49.4 28.5L0 57L-49.4 28.5L-49.4 -28.5Z" fill="none" stroke="#dbeafe" stroke-width="2"></path></g><g transform="translate(175 98)"><path d="M0 -89L77.1 -44.5L77.1 44.5L0 89L-77.1 44.5L-77.1 -44.5Z" fill="none" stroke="#dbeafe" stroke-width="2"></path></g><g transform="translate(814 25)"><path d="M0 -43L37.2 -21.5L37.2 21.5L0 43L-37.2 21.5L-37.2 -21.5Z" stroke="#dbeafe" fill="none" stroke-width="2"></path></g><g transform="translate(766 516)"><path d="M0 -73L63.2 -36.5L63.2 36.5L0 73L-63.2 36.5L-63.2 -36.5Z" stroke="#dbeafe" fill="none" stroke-width="2"></path></g><g transform="translate(283 464)"><path d="M0 -46L39.8 -23L39.8 23L0 46L-39.8 23L-39.8 -23Z" stroke="#dbeafe" fill="none" stroke-width="2"></path></g><g transform="translate(641 315)"><path d="M0 -69L59.8 -34.5L59.8 34.5L0 69L-59.8 34.5L-59.8 -34.5Z" stroke="#dbeafe" fill="none" stroke-width="2"></path></g><g transform="translate(325 260)"><path d="M0 -77L66.7 -38.5L66.7 38.5L0 77L-66.7 38.5L-66.7 -38.5Z" stroke="#dbeafe" fill="none" stroke-width="2"></path></g></g></svg>