<?xml version='1.0' encoding='utf-8'?>
<svg xmlns="http://www.w3.org/2000/svg" width="1000" height="1000" viewBox="0 0 264.58332 264.58334" version="1.1" id="svg5"> <defs id="defs2"/> <metadata id="metadata856"> </metadata> <path style="fill:#ffffff;stroke:none;stroke-width:0.264583px;stroke-linecap:butt;stroke-linejoin:miter;stroke-opacity:1" d="m 83.646707,66.151148 h 77.721273 l 27.8369,34.072402 v 98.20868 H 83.646707 Z" id="path60802"/> <path id="path60336" style="color:#000000;fill:#f7d3c3;stroke-width:0.264583;-inkscape-stroke:none;paint-order:fill markers stroke;fill-opacity:1" d="M 82.847667,65.484398 V 199.09898 H 190.00392 V 100.54169 L 161.12041,65.484398 Z m 1.32292,1.32291 H 161.12041 V 100.54169 H 188.681 v 97.23437 H 84.170587 Z"/> <rect style="fill:#e86229;fill-opacity:1;stroke:none;stroke-width:2.11667;stroke-miterlimit:4;stroke-dasharray:none;stroke-opacity:1;paint-order:fill markers stroke" id="rect925" width="77.611122" height="26.458332" x="71.586037" y="78.321976" rx="1.3229169" ry="1.3229166"/> <g aria-label="HTML" id="text929" style="font-size:19.4028px;line-height:1.25;font-family:'Padauk Book';-inkscape-font-specification:'Padauk Book, Normal';letter-spacing:2.64583px;word-spacing:0px;fill:#ffffff;stroke-width:0.264583"> <path d="M 84.187318,97.633461 V 85.449867 h 1.856909 v 5.134921 h 5.589674 v -5.134921 h 1.913752 v 12.183594 h -1.913752 v -5.494933 h -5.589674 v 5.494933 z" style="text-align:center;text-anchor:middle" id="path877"/> <path d="M 101.76421,97.633461 V 87.041503 h -3.884351 v -1.591636 h 9.682451 v 1.591636 h -3.88435 v 10.591958 z" style="text-align:center;text-anchor:middle" id="path879"/> <path d="M 111.91347,97.633461 V 85.449867 h 3.01273 l 3.29696,9.568764 3.31591,-9.587712 h 3.01274 V 97.633461 H 122.6949 V 87.174139 l -3.69487,10.459322 h -1.59163 l -3.65697,-10.383529 v 10.383529 z" style="text-align:center;text-anchor:middle" id="path881"/> <path d="M 129.83142,97.633461 V 85.449867 h 1.87586 v 10.591958 h 5.41914 v 1.591636 z" style="text-align:center;text-anchor:middle" id="path883"/> </g> <path id="path23221" style="fill:none;stroke:#e86229;stroke-width:3.96875;stroke-linecap:square;stroke-miterlimit:4;stroke-dasharray:none;paint-order:fill markers stroke" d="m 152.3008,139.57549 v 0 0 l 12.1519,12.15191 -12.1519,12.15189 v 0"/> <path id="path23228" style="fill:none;stroke:#e86229;stroke-width:3.96875;stroke-linecap:square;stroke-miterlimit:4;stroke-dasharray:none;paint-order:fill markers stroke" d="m 120.55079,163.87929 -12.1519,-12.15189 12.15189,-12.15191"/> <path style="fill:none;stroke:#e86229;stroke-width:3.96874995;stroke-linecap:butt;stroke-linejoin:miter;stroke-miterlimit:4;stroke-dasharray:none;stroke-opacity:1" d="m 143.21275,132.63115 -13.57392,37.29406" id="path26990"/> </svg>