<?xml version='1.0' encoding='utf-8'?>
<svg xmlns="http://www.w3.org/2000/svg" width="200" height="200" viewBox="0 0 200 200" version="1.1" id="svg5"> <defs id="defs2"/> <metadata id="metadata856"> </metadata> <path style="fill:#ffffff;stroke:none;stroke-width:0.264583px;stroke-linecap:butt;stroke-linejoin:miter;stroke-opacity:1" d="m 83.646707,66.151148 h 77.721273 l 27.8369,34.072402 v 98.20868 H 83.646707 Z" id="path60802"/> <path id="path60336" style="color:#000000;fill:#badaf2;stroke-width:0.264583;-inkscape-stroke:none;paint-order:fill markers stroke;fill-opacity:1" d="M 82.847667,65.484398 V 199.09898 H 190.00392 V 100.54169 L 161.12041,65.484398 Z m 1.32292,1.32291 H 161.12041 V 100.54169 H 188.681 v 97.23437 H 84.170587 Z"/> <rect style="fill:#317fbf;fill-opacity:1;stroke:none;stroke-width:2.11667;stroke-miterlimit:4;stroke-dasharray:none;stroke-opacity:1;paint-order:fill markers stroke" id="rect925" width="77.611122" height="26.458332" x="71.586037" y="78.321976" rx="1.3229169" ry="1.3229166"/> <g aria-label="CSS" id="text929" style="font-size:19.4028px;line-height:1.25;font-family:'Padauk Book';-inkscape-font-specification:'Padauk Book, Normal';letter-spacing:2.64583px;word-spacing:0px;fill:#ffffff;stroke-width:0.264583"> <path d="m 96.566418,97.879786 q -1.421103,0 -2.406401,-0.49265 -0.966351,-0.511597 -1.572688,-1.383207 -0.606338,-0.890558 -0.87161,-2.008493 -0.265273,-1.136883 -0.265273,-2.387454 0,-1.250571 0.265273,-2.387454 0.28422,-1.15583 0.890558,-2.046389 0.606337,-0.909506 1.572688,-1.421103 0.985298,-0.530545 2.406402,-0.530545 2.292713,0 3.372752,1.042142 1.080041,1.023195 1.136881,2.595882 h -1.894803 q -0.0379,-1.06109 -0.644234,-1.610583 -0.606337,-0.549494 -1.970596,-0.549494 -3.183272,0 -3.183272,4.907544 0,2.576935 0.795818,3.675921 0.795818,1.098987 2.349557,1.098987 1.155831,0 1.875857,-0.530545 0.738974,-0.549494 0.795818,-1.667428 h 1.951645 q -0.0379,1.06109 -0.62528,1.894804 -0.587391,0.833714 -1.610586,1.326363 -1.023194,0.473702 -2.368506,0.473702 z" style="text-align:center;text-anchor:middle" id="path1126"/> <path d="m 110.03158,97.879786 q -1.17478,0 -2.14113,-0.454754 -0.96635,-0.473701 -1.53479,-1.345311 -0.56844,-0.890558 -0.56844,-2.141129 h 1.95165 q 0,1.042142 0.62529,1.686376 0.64423,0.644234 1.66742,0.644234 0.49265,0 1.04215,-0.05684 0.54949,-0.07579 1.02319,-0.265273 0.49265,-0.189481 0.79582,-0.568442 0.32211,-0.37896 0.32211,-1.004246 0,-0.757922 -0.3979,-1.174779 -0.37896,-0.435805 -1.0232,-0.644233 -0.64423,-0.227377 -1.4211,-0.360013 -0.75792,-0.151585 -1.53479,-0.322117 -0.75793,-0.189481 -1.40216,-0.530545 -0.64423,-0.360013 -1.04214,-0.985299 -0.37896,-0.644233 -0.37896,-1.705324 0,-0.833714 0.37896,-1.459 0.37896,-0.644233 1.00424,-1.080038 0.64424,-0.435805 1.38321,-0.663182 0.75792,-0.227376 1.47795,-0.227376 1.11793,0 2.10323,0.341064 1.00425,0.322117 1.62953,1.061091 0.64424,0.738974 0.64424,1.970597 h -1.91375 q 0,-0.738974 -0.37897,-1.136883 -0.36001,-0.397909 -0.9474,-0.530545 -0.56844,-0.132637 -1.19372,-0.132637 -0.92846,0 -1.62954,0.416857 -0.68213,0.397909 -0.68213,1.402156 0,0.644233 0.37896,1.023194 0.39791,0.360013 1.04215,0.568442 0.64423,0.208428 1.40215,0.378961 0.77687,0.151584 1.53479,0.360013 0.75793,0.208428 1.40216,0.587389 0.64423,0.378961 1.02319,1.023195 0.39791,0.644233 0.39791,1.667428 0,1.023194 -0.45475,1.74322 -0.45475,0.701078 -1.19373,1.136883 -0.73897,0.416857 -1.62953,0.587389 -0.89056,0.189481 -1.76217,0.189481 z" style="text-align:center;text-anchor:middle" id="path1128"/> <path d="m 123.93255,97.879786 q -1.17478,0 -2.14113,-0.454754 -0.96635,-0.473701 -1.53479,-1.345311 -0.56844,-0.890558 -0.56844,-2.141129 h 1.95165 q 0,1.042142 0.62528,1.686376 0.64424,0.644234 1.66743,0.644234 0.49265,0 1.04214,-0.05684 0.5495,-0.07579 1.0232,-0.265273 0.49265,-0.189481 0.79582,-0.568442 0.32211,-0.37896 0.32211,-1.004246 0,-0.757922 -0.39791,-1.174779 -0.37896,-0.435805 -1.02319,-0.644233 -0.64423,-0.227377 -1.4211,-0.360013 -0.75793,-0.151585 -1.5348,-0.322117 -0.75792,-0.189481 -1.40215,-0.530545 -0.64423,-0.360013 -1.04214,-0.985299 -0.37896,-0.644233 -0.37896,-1.705324 0,-0.833714 0.37896,-1.459 0.37896,-0.644233 1.00424,-1.080038 0.64424,-0.435805 1.38321,-0.663182 0.75792,-0.227376 1.47795,-0.227376 1.11793,0 2.10323,0.341064 1.00425,0.322117 1.62953,1.061091 0.64424,0.738974 0.64424,1.970597 h -1.91376 q 0,-0.738974 -0.37896,-1.136883 -0.36001,-0.397909 -0.9474,-0.530545 -0.56844,-0.132637 -1.19373,-0.132637 -0.92845,0 -1.62953,0.416857 -0.68213,0.397909 -0.68213,1.402156 0,0.644233 0.37896,1.023194 0.39791,0.360013 1.04215,0.568442 0.64423,0.208428 1.40215,0.378961 0.77687,0.151584 1.53479,0.360013 0.75793,0.208428 1.40216,0.587389 0.64423,0.378961 1.02319,1.023195 0.39791,0.644233 0.39791,1.667428 0,1.023194 -0.45475,1.74322 -0.45475,0.701078 -1.19373,1.136883 -0.73897,0.416857 -1.62953,0.587389 -0.89056,0.189481 -1.76217,0.189481 z" style="text-align:center;text-anchor:middle" id="path1130"/> </g> <g aria-label="{" id="text7101" style="font-size:45.8611px;line-height:1.25;letter-spacing:0px;word-spacing:0px;fill:#317fbf;stroke-width:0.264583"> <path d="m 128.48828,169.21506 v 3.22461 h -1.38838 q -5.57588,0 -7.4793,-1.65709 -1.88102,-1.65709 -1.88102,-6.60597 v -5.35195 q 0,-3.38136 -1.20923,-4.68016 -1.20922,-1.2988 -4.38905,-1.2988 h -1.36598 v -3.20222 h 1.36598 q 3.20222,0 4.38905,-1.27641 1.20923,-1.2988 1.20923,-4.63537 v -5.37435 q 0,-4.94888 1.88102,-6.58357 1.90342,-1.65709 7.4793,-1.65709 h 1.38838 v 3.20221 h -1.52273 q -3.15743,0 -4.12034,0.9853 -0.9629,0.9853 -0.9629,4.14272 v 5.5535 q 0,3.51572 -1.03008,5.10563 -1.00769,1.58991 -3.47094,2.14974 2.48564,0.60461 3.49333,2.19452 1.00769,1.58991 1.00769,5.08324 v 5.55349 q 0,3.15743 0.9629,4.14273 0.96291,0.98529 4.12034,0.98529 z" id="path15064"/> </g> <g aria-label="}" id="text13017" style="font-size:45.8611px;line-height:1.25;letter-spacing:0px;word-spacing:0px;fill:#317fbf;stroke-width:0.264583"> <path d="m 144.3633,169.21506 h 1.56752 q 3.13503,0 4.07554,-0.9629 0.96291,-0.9629 0.96291,-4.16512 v -5.55349 q 0,-3.49333 1.00769,-5.08324 1.00769,-1.58991 3.49332,-2.19452 -2.48563,-0.55983 -3.49332,-2.14974 -1.00769,-1.58991 -1.00769,-5.10563 v -5.5535 q 0,-3.17982 -0.96291,-4.14272 -0.94051,-0.9853 -4.07554,-0.9853 h -1.56752 v -3.20221 h 1.41076 q 5.57589,0 7.43452,1.65709 1.88102,1.63469 1.88102,6.58357 v 5.37435 q 0,3.33657 1.20923,4.63537 1.20923,1.27641 4.38905,1.27641 h 1.38837 v 3.20222 h -1.38837 q -3.17982,0 -4.38905,1.2988 -1.20923,1.2988 -1.20923,4.68016 v 5.35195 q 0,4.94888 -1.88102,6.60597 -1.85863,1.65709 -7.43452,1.65709 h -1.41076 z" id="path15222"/> </g> </svg>