<?xml version="1.0" encoding="UTF-8" standalone="no"?>
<svg
   width="1000"
   height="1000"
   viewBox="0 0 264.58332 264.58334"
   version="1.1"
   id="svg5"
   sodipodi:docname="microsoft-office-7040222.svg"
   inkscape:version="1.3.2 (091e20e, 2023-11-25, custom)"
   xmlns:inkscape="http://www.inkscape.org/namespaces/inkscape"
   xmlns:sodipodi="http://sodipodi.sourceforge.net/DTD/sodipodi-0.dtd"
   xmlns="http://www.w3.org/2000/svg"
   xmlns:svg="http://www.w3.org/2000/svg">
  <sodipodi:namedview
     id="namedview1"
     pagecolor="#505050"
     bordercolor="#eeeeee"
     borderopacity="1"
     inkscape:showpageshadow="0"
     inkscape:pageopacity="0"
     inkscape:pagecheckerboard="0"
     inkscape:deskcolor="#505050"
     inkscape:zoom="0.831"
     inkscape:cx="500"
     inkscape:cy="500"
     inkscape:window-width="1920"
     inkscape:window-height="1027"
     inkscape:window-x="1912"
     inkscape:window-y="-8"
     inkscape:window-maximized="1"
     inkscape:current-layer="text929" />
  <defs
     id="defs2" />
  <metadata
     id="metadata856" />
  <path
     style="fill:#ffffff;stroke:none;stroke-width:0.264583px;stroke-linecap:butt;stroke-linejoin:miter;stroke-opacity:1"
     d="m 83.646707,66.151148 h 77.721273 l 27.8369,34.072402 v 98.20868 H 83.646707 Z"
     id="path60802" />
  <path
     id="path60336"
     style="color:#000000;fill:#c3dbf7;stroke-width:0.264583;-inkscape-stroke:none;paint-order:fill markers stroke;fill-opacity:1"
     d="M 82.847667,65.484398 V 199.09898 H 190.00392 V 100.54169 L 161.12041,65.484398 Z m 1.32292,1.32291 H 161.12041 V 100.54169 H 188.681 v 97.23437 H 84.170587 Z" />
  <rect
     style="fill:#3376cc;fill-opacity:1;stroke:none;stroke-width:2.11667;stroke-miterlimit:4;stroke-dasharray:none;stroke-opacity:1;paint-order:fill markers stroke"
     id="rect925"
     width="77.611122"
     height="26.458332"
     x="71.586037"
     y="78.321976"
     rx="1.3229169"
     ry="1.3229166" />
  <g
     aria-label="DOC"
     id="text929"
     style="font-size:19.4028px;line-height:1.25;font-family:'Padauk Book';-inkscape-font-specification:'Padauk Book, Normal';letter-spacing:2.64583px;word-spacing:0px;fill:#ffffff;stroke-width:0.264583">
    <path
       d="M 86.184441,97.633461 V 85.449867 h 3.751714 q 1.64848,0 2.823259,0.492649 1.174778,0.473701 1.894804,1.326364 0.720026,0.833714 1.061091,1.9327 0.341065,1.098987 0.341065,2.33061 0,1.212675 -0.341065,2.311662 -0.341065,1.098986 -1.080039,1.951648 -0.738974,0.852663 -1.913753,1.345312 -1.15583,0.492649 -2.785362,0.492649 z m 1.875857,-1.591636 h 1.894805 q 1.989545,0 3.088531,-1.155831 1.117935,-1.174779 1.117935,-3.353804 0,-2.197973 -1.117935,-3.334856 -1.098986,-1.155831 -3.088531,-1.155831 h -1.894805 z"
       style="text-align:center;text-anchor:middle"
       id="path877" />
    <path
       d="m 105.18516,97.879786 q -1.40215,0 -2.46324,-0.511598 -1.06109,-0.530545 -1.76217,-1.440051 -0.68213,-0.909506 -1.042137,-2.084285 -0.34107,-1.174779 -0.34107,-2.482194 0,-1.762169 0.625287,-3.145376 0.62528,-1.383208 1.87585,-2.179025 1.25057,-0.814766 3.10748,-0.814766 1.89481,0 3.12643,0.814766 1.25057,0.814766 1.85691,2.216921 0.60634,1.383207 0.60634,3.10748 0,1.762168 -0.62529,3.259064 -0.60634,1.477947 -1.85691,2.368505 -1.23162,0.890559 -3.10748,0.890559 z m 0,-1.610584 q 1.38321,0 2.16008,-0.663182 0.79582,-0.68213 1.11793,-1.800064 0.34107,-1.117935 0.34107,-2.444298 0,-1.326364 -0.34107,-2.349558 -0.32211,-1.023195 -1.11793,-1.610584 -0.77687,-0.58739 -2.16008,-0.58739 -1.36426,0 -2.17902,0.58739 -0.79582,0.587389 -1.13689,1.610584 -0.32211,1.023194 -0.32211,2.349558 0,1.326363 0.32211,2.444298 0.34107,1.117934 1.13689,1.800064 0.81476,0.663182 2.17902,0.663182 z"
       style="text-align:center;text-anchor:middle"
       id="path879" />
    <path
       d="m 119.411,97.879786 q -1.42111,0 -2.4064,-0.49265 -0.96635,-0.511597 -1.57269,-1.383207 -0.60634,-0.890558 -0.87161,-2.008493 -0.26527,-1.136883 -0.26527,-2.387454 0,-1.250571 0.26527,-2.387454 0.28422,-1.15583 0.89056,-2.046389 0.60633,-0.909506 1.57268,-1.421103 0.9853,-0.530545 2.40641,-0.530545 2.29271,0 3.37275,1.042142 1.08004,1.023195 1.13688,2.595882 h -1.8948 q -0.0379,-1.06109 -0.64424,-1.610583 -0.60633,-0.549494 -1.97059,-0.549494 -3.18328,0 -3.18328,4.907544 0,2.576935 0.79582,3.675921 0.79582,1.098987 2.34956,1.098987 1.15583,0 1.87586,-0.530545 0.73897,-0.549494 0.79581,-1.667428 h 1.95165 q -0.0379,1.06109 -0.62528,1.894804 -0.58739,0.833714 -1.61059,1.326363 -1.02319,0.473702 -2.3685,0.473702 z"
       style="text-align:center;text-anchor:middle"
       id="path881" />
    <path
       d="m 127.28374,97.633461 4.43387,-6.461284 -3.90332,-5.72231 h 2.33062 l 2.82328,4.395947 2.76643,-4.395947 h 2.16008 l -3.92226,5.72231 4.43385,6.461284 h -2.33061 l -3.35382,-5.115973 -3.29698,5.115973 z"
       style="text-align:center;text-anchor:middle"
       id="path2007" />
  </g>
  <path
     style="fill:none;fill-opacity:1;stroke:#3376cc;stroke-width:3.175;stroke-linecap:butt;stroke-linejoin:miter;stroke-miterlimit:4;stroke-dasharray:none;stroke-opacity:1"
     d="m 134.09475,121.43042 h 39.37271"
     id="path933" />
  <path
     style="fill:none;fill-opacity:1;stroke:#3376cc;stroke-width:3.175;stroke-linecap:butt;stroke-linejoin:miter;stroke-miterlimit:4;stroke-dasharray:none;stroke-opacity:1"
     d="m 134.09475,140.56035 h 39.37271"
     id="path935" />
  <path
     style="fill:none;fill-opacity:1;stroke:#3376cc;stroke-width:3.175;stroke-linecap:butt;stroke-linejoin:miter;stroke-miterlimit:4;stroke-dasharray:none;stroke-opacity:1"
     d="M 99.384127,159.69029 H 173.46746"
     id="path937" />
  <path
     style="fill:none;fill-opacity:1;stroke:#3376cc;stroke-width:3.175;stroke-linecap:butt;stroke-linejoin:miter;stroke-miterlimit:4;stroke-dasharray:none;stroke-opacity:1"
     d="M 99.384127,178.82022 H 173.46746"
     id="path939" />
  <path
     style="fill:none;stroke:#3376cc;stroke-width:3.175;stroke-linecap:butt;stroke-linejoin:miter;stroke-miterlimit:4;stroke-dasharray:none;stroke-opacity:1"
     d="m 100.97163,121.43042 v 19.12993 h 23.49771 v -19.12993 z"
     id="path90296" />
</svg>
