<?xml version='1.0' encoding='utf-8'?>
<svg xmlns="http://www.w3.org/2000/svg" width="1000" height="1000" viewBox="0 0 264.58332 264.58334" version="1.1" id="svg5"> <defs id="defs2"/> <metadata id="metadata856"> </metadata> <path style="fill:#ffffff;stroke:none;stroke-width:0.264583px;stroke-linecap:butt;stroke-linejoin:miter;stroke-opacity:1" d="m 83.646633,66.151162 h 77.721277 l 27.8369,34.072398 v 98.20868 H 83.646633 Z" id="path959"/> <path id="path961" style="color:#000000;fill:#f7e8b9;fill-opacity:1;stroke-width:0.264583;-inkscape-stroke:none;paint-order:fill markers stroke" d="M 82.847593,65.484412 V 199.09899 H 190.00385 V 100.5417 L 161.12034,65.484412 Z m 1.32292,1.32291 H 161.12034 V 100.5417 h 27.56059 v 97.23437 H 84.170513 Z"/> <rect style="fill:#edb100;fill-opacity:1;stroke:none;stroke-width:2.11667;stroke-miterlimit:4;stroke-dasharray:none;stroke-opacity:1;paint-order:fill markers stroke" id="rect963" width="77.611122" height="26.458332" x="71.585953" y="78.321991" rx="1.3229169" ry="1.3229166"/> <g aria-label="ZIP" id="text967" style="font-size:19.4028px;line-height:1.25;font-family:'Padauk Book';-inkscape-font-specification:'Padauk Book, Normal';letter-spacing:2.64583px;word-spacing:0px;fill:#ffffff;stroke-width:0.264583"> <path d="m 95.505244,97.633484 v -1.913753 l 6.669716,-8.678205 H 95.846309 V 85.44989 h 8.450831 v 1.932701 l -6.669715,8.659257 h 6.821295 v 1.591636 z" style="text-align:center;text-anchor:middle" id="path1018"/> <path d="M 109.19779,97.633484 V 85.44989 h 1.87585 v 12.183594 z" style="text-align:center;text-anchor:middle" id="path1020"/> <path d="M 116.3722,97.633484 V 85.44989 h 3.65697 q 0.87161,0 1.70532,0.151584 0.85267,0.151585 1.51585,0.549494 0.66318,0.378961 1.06109,1.080038 0.39791,0.701078 0.39791,1.819013 0,1.117935 -0.41686,1.819012 -0.39791,0.701078 -1.06109,1.080039 -0.66318,0.360013 -1.4969,0.511597 -0.83371,0.132637 -1.70532,0.132637 h -1.78112 v 5.04018 z m 1.87585,-6.631816 h 1.66743 q 1.42111,0 2.17903,-0.416857 0.75792,-0.435805 0.75792,-1.534792 0,-1.117935 -0.75792,-1.55374 -0.73898,-0.454753 -2.17903,-0.454753 h -1.66743 z" style="text-align:center;text-anchor:middle" id="path1022"/> </g> <g id="g995" transform="translate(-4.613737,-6.7600198)" style="stroke-width:1"> <rect style="fill:#edb100;fill-opacity:1;stroke:none;stroke-width:0.264583;stroke-linecap:square;stroke-opacity:1;paint-order:fill markers stroke" id="rect969" width="7.9375" height="5.2916665" x="162.86758" y="124.66232"/> <rect style="fill:#edb100;fill-opacity:1;stroke:none;stroke-width:0.264583;stroke-linecap:square;stroke-opacity:1;paint-order:fill markers stroke" id="rect971" width="7.9375" height="5.2916665" x="170.80508" y="129.95398"/> <rect style="fill:#edb100;fill-opacity:1;stroke:none;stroke-width:0.264583;stroke-linecap:square;stroke-opacity:1;paint-order:fill markers stroke" id="rect973" width="7.9375" height="5.2916665" x="162.86758" y="135.24565"/> <rect style="fill:#edb100;fill-opacity:1;stroke:none;stroke-width:0.264583;stroke-linecap:square;stroke-opacity:1;paint-order:fill markers stroke" id="rect975" width="7.9375" height="5.2916665" x="170.80508" y="140.53731"/> <rect style="fill:#edb100;fill-opacity:1;stroke:none;stroke-width:0.264583;stroke-linecap:square;stroke-opacity:1;paint-order:fill markers stroke" id="rect977" width="7.9375" height="5.2916665" x="162.86758" y="145.82898"/> <rect style="fill:#edb100;fill-opacity:1;stroke:none;stroke-width:0.264583;stroke-linecap:square;stroke-opacity:1;paint-order:fill markers stroke" id="rect979" width="7.9375" height="5.2916665" x="170.80508" y="151.12064"/> <rect style="fill:#edb100;fill-opacity:1;stroke:none;stroke-width:0.264583;stroke-linecap:square;stroke-opacity:1;paint-order:fill markers stroke" id="rect981" width="7.9375" height="5.2916665" x="162.86758" y="156.41231"/> <rect style="fill:#edb100;fill-opacity:1;stroke:none;stroke-width:0.264583;stroke-linecap:square;stroke-opacity:1;paint-order:fill markers stroke" id="rect983" width="7.9375" height="5.2916665" x="170.80508" y="161.70396"/> <rect style="fill:#edb100;fill-opacity:1;stroke:none;stroke-width:0.264583;stroke-linecap:square;stroke-opacity:1;paint-order:fill markers stroke" id="rect985" width="7.9375" height="5.2916665" x="162.86758" y="166.99564"/> <g id="g991" transform="translate(-172.16462,-11.472677)" style="stroke-width:1"> <rect style="fill:none;fill-opacity:1;stroke:#edb100;stroke-width:0.79375;stroke-linecap:square;stroke-miterlimit:4;stroke-dasharray:none;stroke-opacity:1;paint-order:fill markers stroke" id="rect987" width="6.3500004" height="6.3884077" x="339.79471" y="190.10997"/> <rect style="fill:#edb100;fill-opacity:1;stroke:none;stroke-width:0.264583;stroke-linecap:square;stroke-opacity:1;paint-order:fill markers stroke" id="rect989" width="6.3500004" height="6.3884077" x="339.79471" y="196.49838"/> </g> <rect style="fill:#edb100;fill-opacity:1;stroke:none;stroke-width:0.264583;stroke-linecap:square;stroke-opacity:1;paint-order:fill markers stroke" id="rect993" width="7.9375" height="5.2916665" x="170.80508" y="172.28729"/> </g> </svg>