<?xml version="1.0" encoding="UTF-8" standalone="no"?>
<svg
   id="visual"
   viewBox="0 0 900 600"
   width="900"
   height="600"
   version="1.1"
   sodipodi:docname="background_3.svg"
   inkscape:version="1.3.2 (091e20e, 2023-11-25, custom)"
   xmlns:inkscape="http://www.inkscape.org/namespaces/inkscape"
   xmlns:sodipodi="http://sodipodi.sourceforge.net/DTD/sodipodi-0.dtd"
   xmlns="http://www.w3.org/2000/svg"
   xmlns:svg="http://www.w3.org/2000/svg">
  <sodipodi:namedview
     id="namedview17"
     pagecolor="#505050"
     bordercolor="#eeeeee"
     borderopacity="1"
     inkscape:showpageshadow="0"
     inkscape:pageopacity="0"
     inkscape:pagecheckerboard="0"
     inkscape:deskcolor="#505050"
     inkscape:zoom="1.385"
     inkscape:cx="450.18051"
     inkscape:cy="300"
     inkscape:window-width="1920"
     inkscape:window-height="1027"
     inkscape:window-x="1912"
     inkscape:window-y="-8"
     inkscape:window-maximized="1"
     inkscape:current-layer="g17" />
  <rect
     x="0"
     y="0"
     width="900"
     height="600"
     fill="#181818"
     id="rect1"
     style="fill:#ff6600" />
  <defs
     id="defs2">
    <linearGradient
       id="grad1_0"
       x1="33.3%"
       y1="0%"
       x2="100%"
       y2="100%">
      <stop
         offset="20%"
         stop-color="#333333"
         stop-opacity="1"
         id="stop1" />
      <stop
         offset="80%"
         stop-color="#333333"
         stop-opacity="1"
         id="stop2" />
    </linearGradient>
  </defs>
  <defs
     id="defs4">
    <linearGradient
       id="grad1_1"
       x1="33.3%"
       y1="0%"
       x2="100%"
       y2="100%">
      <stop
         offset="20%"
         stop-color="#333333"
         stop-opacity="1"
         id="stop3" />
      <stop
         offset="80%"
         stop-color="#252525"
         stop-opacity="1"
         id="stop4" />
    </linearGradient>
  </defs>
  <defs
     id="defs6">
    <linearGradient
       id="grad1_2"
       x1="33.3%"
       y1="0%"
       x2="100%"
       y2="100%">
      <stop
         offset="20%"
         stop-color="#181818"
         stop-opacity="1"
         id="stop5" />
      <stop
         offset="80%"
         stop-color="#252525"
         stop-opacity="1"
         id="stop6" />
    </linearGradient>
  </defs>
  <defs
     id="defs8">
    <linearGradient
       id="grad2_0"
       x1="0%"
       y1="0%"
       x2="66.7%"
       y2="100%">
      <stop
         offset="20%"
         stop-color="#333333"
         stop-opacity="1"
         id="stop7" />
      <stop
         offset="80%"
         stop-color="#333333"
         stop-opacity="1"
         id="stop8" />
    </linearGradient>
  </defs>
  <defs
     id="defs10">
    <linearGradient
       id="grad2_1"
       x1="0%"
       y1="0%"
       x2="66.7%"
       y2="100%">
      <stop
         offset="20%"
         stop-color="#252525"
         stop-opacity="1"
         id="stop9" />
      <stop
         offset="80%"
         stop-color="#333333"
         stop-opacity="1"
         id="stop10" />
    </linearGradient>
  </defs>
  <defs
     id="defs12">
    <linearGradient
       id="grad2_2"
       x1="0%"
       y1="0%"
       x2="66.7%"
       y2="100%">
      <stop
         offset="20%"
         stop-color="#252525"
         stop-opacity="1"
         id="stop11" />
      <stop
         offset="80%"
         stop-color="#181818"
         stop-opacity="1"
         id="stop12" />
    </linearGradient>
  </defs>
  <g
     transform="translate(900, 0)"
     id="g14"
     style="fill:#d45500">
    <path
       d="M0 405.6C-31.1 369.3 -62.2 333 -106.3 327.2C-150.4 321.3 -207.3 345.8 -238.4 328.2C-269.5 310.5 -274.7 250.7 -287.2 208.7C-299.7 166.6 -319.5 142.4 -340.5 110.6C-361.4 78.8 -383.5 39.4 -405.6 0L0 0Z"
       fill="#1e1e1e"
       id="path12"
       style="fill:#d45500" />
    <path
       d="M0 270.4C-20.7 246.2 -41.5 222 -70.9 218.1C-100.2 214.2 -138.2 230.5 -158.9 218.8C-179.7 207 -183.1 167.1 -191.5 139.1C-199.8 111.1 -213 95 -227 73.8C-241 52.5 -255.7 26.3 -270.4 0L0 0Z"
       fill="#2c2c2c"
       id="path13"
       style="fill:#aa4400" />
    <path
       d="M0 135.2C-10.4 123.1 -20.7 111 -35.4 109.1C-50.1 107.1 -69.1 115.3 -79.5 109.4C-89.8 103.5 -91.6 83.6 -95.7 69.6C-99.9 55.5 -106.5 47.5 -113.5 36.9C-120.5 26.3 -127.8 13.1 -135.2 0L0 0Z"
       fill="#333333"
       id="path14"
       style="fill:#803300" />
  </g>
  <g
     transform="translate(0, 600)"
     id="g17"
     style="fill:#d45500">
    <path
       d="M0 -405.6C46.6 -408.3 93.2 -410.9 125.3 -385.8C157.5 -360.6 175.2 -307.6 197.5 -271.8C219.8 -236.1 246.8 -217.5 264.5 -192.2C282.3 -166.9 290.9 -134.8 312.9 -101.7C334.9 -68.5 370.3 -34.3 405.6 0L0 0Z"
       fill="#1e1e1e"
       id="path15"
       style="fill:#d45500" />
    <path
       d="M0 -270.4C31.1 -272.2 62.1 -274 83.6 -257.2C105 -240.4 116.8 -205.1 131.7 -181.2C146.5 -157.4 164.5 -145 176.4 -128.1C188.2 -111.3 193.9 -89.9 208.6 -67.8C223.3 -45.7 246.8 -22.8 270.4 0L0 0Z"
       fill="#2c2c2c"
       id="path16"
       style="fill:#aa4400" />
    <path
       d="M0 -135.2C15.5 -136.1 31.1 -137 41.8 -128.6C52.5 -120.2 58.4 -102.5 65.8 -90.6C73.3 -78.7 82.3 -72.5 88.2 -64.1C94.1 -55.6 97 -44.9 104.3 -33.9C111.6 -22.8 123.4 -11.4 135.2 0L0 0Z"
       fill="#333333"
       id="path17"
       style="fill:#803300" />
  </g>
</svg>
